<svg width="181" height="49" viewBox="0 0 181 49" fill="none" xmlns="http://www.w3.org/2000/svg">
<path d="M1.91586 14.8312C2.12486 14.2042 2.85637 14.3436 3.90138 14.2391C5.5734 14.0997 8.74328 13.8907 11.321 13.5076C11.8087 13.4727 12.366 13.5076 12.8188 13.7862C13.411 14.0997 13.8638 14.7616 13.7593 15.3537C13.2368 17.6179 12.1918 19.9518 10.903 22.0418C12.8188 23.6442 14.7695 25.4555 15.9887 26.9882C16.3022 27.4062 15.9887 28.1726 15.5359 28.5209C15.0134 28.9389 14.3167 28.9389 13.9335 28.5209C12.4357 26.9534 10.8333 25.56 9.26579 24.4105C7.66343 26.5354 5.88691 28.1726 4.49356 28.8693C3.97105 29.1479 3.37888 29.3221 2.6822 29.0783C1.98553 28.8693 1.74169 28.1029 2.50803 27.5107C6.13075 24.6544 8.91745 20.962 10.5895 15.9808C8.42977 16.2594 6.51392 16.4684 4.49356 16.7123C3.03054 16.9213 1.56752 15.8414 1.91586 14.8312ZM19.1237 7.72515C19.7856 7.13298 20.8306 7.51615 21.3183 8.07349C22.2588 9.1185 22.9206 10.5119 22.8858 11.9052L22.6071 33.328C22.5723 34.7213 22.3285 36.9855 21.0396 37.1249C20.0991 37.2294 19.7508 35.0348 19.7508 34.0595L19.8901 12.9502C19.8901 12.2535 19.8204 11.1737 19.4721 10.5119C19.0541 9.67584 18.3922 8.38699 19.1237 7.72515ZM32.3687 11.8355C32.6126 11.1389 34.1104 11.3479 34.9464 11.3479C38.7085 11.2434 41.8087 11.104 45.2921 10.9299C46.9293 10.8254 48.2529 11.1737 48.1833 12.9154C48.1136 14.6919 48.0439 16.6774 47.6259 19.4641C47.4169 20.9272 46.9641 22.9475 45.6404 22.7733C44.9437 22.6688 44.7347 21.8328 44.9437 19.499C45.1876 16.8864 45.2224 15.0402 45.2572 13.3682C41.6694 13.5424 38.186 13.7514 34.5284 13.9256C33.5183 13.9952 31.9507 12.9502 32.3687 11.8355ZM29.1292 24.2364C36.2353 24.306 43.7246 23.9925 51.0048 23.7487C51.5273 23.7139 52.1543 23.6094 52.642 23.6094C53.5825 23.6094 53.8612 24.2015 53.896 24.7589C53.9657 25.6994 53.3387 26.1522 52.7117 26.2567C52.3982 26.3264 52.1892 26.1871 51.1093 26.2219C47.9394 26.3264 44.9437 26.3961 41.9829 26.4657V33.8853C41.9829 36.3934 41.3559 37.3687 40.485 37.4384C39.5097 37.508 39.1265 36.3934 39.0917 34.8607L38.9872 26.5354C35.469 26.6399 31.9507 26.7096 28.1887 26.7792C26.7257 26.8141 25.7503 25.2117 26.3077 24.3409C26.7953 23.5397 28.1539 24.2364 29.1292 24.2364ZM68.8506 18.3495C68.8506 16.0156 67.7359 14.3087 64.984 14.3087C62.1973 14.3087 61.1523 16.0504 61.1523 18.3495C61.1523 20.8575 62.4063 22.425 64.984 22.425C67.5966 22.425 68.8506 20.6136 68.8506 18.3495ZM71.707 18.3495C71.707 21.6587 69.8608 25.0375 65.0189 25.0375C59.9331 25.0375 58.296 21.5542 58.296 18.3495C58.296 14.8312 60.4557 11.6265 65.0189 11.6265C69.6518 11.6265 71.707 14.7616 71.707 18.3495ZM58.3308 28.9389C62.5108 28.7996 66.6212 28.5209 72.0553 28.0681C72.5778 28.0332 73.2048 27.9287 73.6925 27.9287C74.633 27.9287 74.9117 28.5209 74.9465 29.1131C75.0162 30.0536 74.3892 30.4716 73.7622 30.6109C73.4487 30.6806 73.2397 30.4368 72.1598 30.5413C67.9449 30.9244 61.9535 31.4121 57.3903 31.447C55.9273 31.447 54.9519 29.8794 55.4744 29.0086C55.9969 28.2074 57.3554 28.9738 58.3308 28.9389ZM75.6432 7.72515C76.305 7.13298 77.35 7.51615 77.8377 8.07349C78.7782 9.1185 79.4401 10.5119 79.4052 11.9052L79.1266 33.328C79.0917 34.7213 78.8479 36.9855 77.559 37.1249C76.6185 37.2294 76.2702 35.0348 76.2702 34.0595L76.4095 12.9502C76.4095 12.2535 76.3399 11.1737 75.9915 10.5119C75.5735 9.67584 74.9117 8.38699 75.6432 7.72515ZM92.0877 12.2187C92.2967 11.5917 93.0282 11.731 94.0732 11.6265C95.7453 11.4872 98.9151 11.2782 101.493 10.895C101.981 10.8602 102.538 10.895 102.991 11.1737C103.583 11.4872 104.071 12.149 103.931 12.7412C103.444 14.5874 102.538 16.3291 101.458 17.8966C103.235 19.29 104.976 20.8923 106.161 22.2857C106.474 22.6688 106.161 23.47 105.708 23.8184C105.185 24.2364 104.489 24.2364 104.105 23.8184C102.642 22.2857 101.145 21.2058 99.6467 20.1608C97.9746 22.007 96.1284 23.4352 94.6654 24.1667C94.1429 24.4454 93.5507 24.6195 92.8541 24.3757C92.1574 24.1667 91.9136 23.3655 92.6799 22.8082C95.9194 20.5091 99.4028 17.0606 100.761 13.3682C98.6016 13.6469 96.6858 13.8559 94.6654 14.0997C93.2024 14.3087 91.7394 13.2289 92.0877 12.2187ZM108.773 7.72515C109.435 7.16781 110.48 7.55098 110.968 8.10832C111.908 9.15333 112.57 10.5119 112.535 11.94L112.431 15.7369C113.406 15.6673 114.381 15.5976 115.426 15.5279C115.949 15.4931 116.576 15.4582 117.064 15.4931C118.004 15.5628 118.248 16.1549 118.248 16.7123C118.248 17.6528 117.621 18.0359 116.959 18.1405C116.646 18.2101 116.471 17.9663 115.392 18.0011C114.451 18.0359 113.441 18.0708 112.361 18.1056L112.256 22.1812C112.222 23.5397 111.978 25.8039 110.689 25.9432C109.748 26.0477 109.4 23.8532 109.4 22.9127L109.539 12.9502C109.539 12.2884 109.47 11.1737 109.121 10.5119C108.703 9.71068 108.042 8.38699 108.773 7.72515ZM98.3926 32.074C98.3926 28.3467 101.632 25.9781 105.429 26.0129C109.226 26.0129 112.465 28.2771 112.465 32.074C112.465 35.8012 109.226 38.135 105.429 38.135C101.632 38.1699 98.3926 35.8012 98.3926 32.074ZM101.249 32.074C101.249 33.9202 102.817 35.627 105.429 35.5922C108.042 35.5922 109.609 33.9202 109.609 32.074C109.644 30.1929 108.042 28.5558 105.429 28.5558C102.817 28.5209 101.249 30.1581 101.249 32.074ZM124.476 26.6399C126.706 26.8489 130.503 26.3264 132.627 25.8387C133.15 25.7342 133.707 26.2219 133.742 26.9534C133.777 27.5456 133.463 28.0332 133.011 28.2074C130.955 28.9389 126.253 29.3918 123.849 29.1131C122.595 28.9738 121.724 28.2422 121.655 26.7096C121.585 25.0027 121.585 18.1753 121.202 16.8864C120.993 16.0504 120.366 15.0054 120.714 14.3436C120.993 13.8211 121.306 13.5076 122.247 13.5424C122.874 13.5772 123.501 13.6121 124.163 13.5772C125.591 13.4727 128.831 13.2289 130.224 13.0547C131.443 12.9154 132.209 13.5076 132.244 14.3436C132.279 15.1796 131.687 15.7021 130.433 15.7369C128.9 15.7718 125.87 15.8763 123.849 16.0504C123.989 16.7819 124.128 18.3146 124.232 19.9866C125.173 19.917 126.706 19.8125 128.169 19.6731C128.865 19.6035 129.562 19.499 130.224 19.4641C131.443 19.4293 132.209 19.917 132.244 20.753C132.279 21.589 131.687 22.1115 130.433 22.1463C128.796 22.216 126.357 22.3205 124.372 22.425C124.441 24.2015 124.476 25.8387 124.476 26.6399ZM137.504 7.72515C138.166 7.13298 139.211 7.51615 139.699 8.07349C140.639 9.1185 141.301 10.5119 141.266 11.9052L140.988 33.328C140.953 34.7213 140.709 36.9855 139.42 37.1249C138.48 37.2294 138.131 35.0348 138.131 34.0595L138.201 21.4845L136.215 21.7283C134.508 21.9722 133.638 21.2755 133.742 20.1956C133.812 19.5338 134.369 19.1855 134.857 19.1506C135.588 19.081 136.25 19.1506 136.947 19.1158C137.365 19.081 137.818 19.0461 138.236 19.0113L138.271 12.9502C138.271 12.2535 138.201 11.1737 137.852 10.5119C137.434 9.67584 136.773 8.38699 137.504 7.72515Z" fill="black"/>
<path d="M98.4714 44.6736C98.5041 44.5755 98.6184 44.5973 98.7818 44.581C99.0432 44.5592 99.5388 44.5265 99.9418 44.4666C100.018 44.4612 100.105 44.4666 100.176 44.5102C100.268 44.5592 100.339 44.6627 100.323 44.7552C100.241 45.1092 100.078 45.4741 99.8764 45.8008C100.176 46.0513 100.481 46.3345 100.671 46.5741C100.72 46.6395 100.671 46.7593 100.601 46.8137C100.519 46.8791 100.41 46.8791 100.35 46.8137C100.116 46.5687 99.8655 46.3509 99.6205 46.1711C99.3699 46.5033 99.0922 46.7593 98.8744 46.8682C98.7927 46.9118 98.7001 46.939 98.5912 46.9009C98.4823 46.8682 98.4442 46.7484 98.564 46.6558C99.1303 46.2093 99.566 45.632 99.8274 44.8533C99.4898 44.8968 99.1902 44.9295 98.8744 44.9676C98.6457 45.0003 98.4169 44.8315 98.4714 44.6736ZM101.162 43.5626C101.265 43.47 101.428 43.5299 101.505 43.6171C101.652 43.7804 101.755 43.9983 101.75 44.2161L101.706 47.5653C101.701 47.7831 101.663 48.1371 101.461 48.1589C101.314 48.1752 101.26 47.8321 101.26 47.6796L101.281 44.3795C101.281 44.2706 101.271 44.1018 101.216 43.9983C101.151 43.8676 101.047 43.6661 101.162 43.5626ZM109.05 44.2052C109.088 44.0963 109.323 44.129 109.453 44.129C110.041 44.1126 110.526 44.0909 111.071 44.0636C111.327 44.0473 111.534 44.1018 111.523 44.374C111.512 44.6518 111.501 44.9622 111.436 45.3978C111.403 45.6266 111.332 45.9424 111.125 45.9152C111.016 45.8989 110.984 45.7682 111.016 45.4033C111.054 44.9949 111.06 44.7062 111.065 44.4448C110.504 44.4721 109.96 44.5047 109.388 44.532C109.23 44.5429 108.985 44.3795 109.05 44.2052ZM108.544 46.1439C109.655 46.1548 110.826 46.1058 111.964 46.0677C112.045 46.0622 112.144 46.0459 112.22 46.0459C112.367 46.0459 112.41 46.1385 112.416 46.2256C112.427 46.3726 112.329 46.4434 112.231 46.4598C112.182 46.4707 112.149 46.4489 111.98 46.4543C111.485 46.4707 111.016 46.4816 110.553 46.4924V47.6524C110.553 48.0445 110.455 48.197 110.319 48.2079C110.167 48.2188 110.107 48.0445 110.101 47.8049L110.085 46.5033C109.535 46.5197 108.985 46.5306 108.397 46.5415C108.168 46.5469 108.016 46.2964 108.103 46.1603C108.179 46.035 108.391 46.1439 108.544 46.1439Z" fill="#0FAC27"/>
<path d="M103.232 44.0146C103.27 43.9057 103.505 43.9384 103.635 43.9384C104.223 43.922 104.708 43.9003 105.253 43.873C105.509 43.8567 105.716 43.9111 105.705 44.1834C105.694 44.4612 105.672 44.777 105.628 45.0439C105.59 45.2726 105.525 45.5884 105.318 45.5612C105.209 45.5449 105.176 45.4142 105.209 45.0493C105.231 44.7988 105.242 44.5156 105.247 44.2542C104.686 44.2815 104.142 44.3141 103.57 44.3414C103.412 44.3523 103.167 44.1889 103.232 44.0146ZM102.726 45.8063C103.837 45.8172 105.008 45.7736 106.146 45.73C106.227 45.7246 106.325 45.7137 106.402 45.7137C106.549 45.7137 106.592 45.8008 106.598 45.888C106.609 46.035 106.511 46.1058 106.413 46.1221C106.364 46.133 106.331 46.1112 106.162 46.1167C104.904 46.1494 103.826 46.1766 102.579 46.2038C102.35 46.2093 102.198 45.9588 102.285 45.8226C102.361 45.7028 102.573 45.8063 102.726 45.8063ZM103.712 47.0969C103.766 47.2984 103.799 47.5979 103.82 47.8757C104.338 47.8975 104.888 47.8866 105.236 47.8539C105.264 47.5762 105.28 47.2821 105.28 47.0316C104.79 47.0697 104.196 47.0697 103.712 47.0969ZM103.178 46.8301C103.205 46.7484 103.26 46.7103 103.445 46.7212C103.564 46.7266 103.679 46.7266 103.804 46.7212C104.305 46.6939 104.85 46.6939 105.356 46.6558C105.618 46.634 105.726 46.7756 105.721 46.9281C105.71 47.2494 105.683 47.6252 105.656 47.941C105.639 48.1316 105.579 48.2133 105.307 48.2296C104.959 48.2569 104.223 48.2787 103.81 48.2514C103.521 48.2296 103.417 48.0227 103.396 47.8267C103.374 47.6088 103.33 47.3148 103.27 47.1732C103.221 47.0588 103.145 46.9227 103.178 46.8301ZM113.338 44.9676C113.403 45.3706 113.42 46.0786 113.441 46.4652C113.692 46.4489 113.882 46.4162 114.089 46.3617C114.111 45.9533 114.127 45.2998 114.133 44.8751C113.806 44.9186 113.61 44.9458 113.338 44.9676ZM112.826 44.6899C112.853 44.6082 112.946 44.5755 113.066 44.581C113.185 44.5864 113.305 44.5864 113.425 44.581C113.648 44.5701 113.882 44.532 114.215 44.4884C114.471 44.4557 114.574 44.6082 114.574 44.7607C114.569 45.2835 114.541 45.8008 114.509 46.3236C114.492 46.5741 114.427 46.6722 114.264 46.7212C114.035 46.792 113.719 46.8464 113.43 46.8519C113.147 46.8573 113.027 46.7321 113.017 46.536C113.006 46.2746 112.989 45.2617 112.891 45.033C112.842 44.9186 112.793 44.7825 112.826 44.6899ZM115.473 45.3924C115.636 45.3815 115.756 45.3761 115.832 45.3652C115.865 45.3652 115.897 45.3652 115.925 45.3597L115.93 44.3795C115.93 44.276 115.914 44.1018 115.859 43.9983C115.788 43.873 115.69 43.6661 115.805 43.5626C115.908 43.4755 116.066 43.5354 116.142 43.6225C116.284 43.7859 116.382 43.9983 116.382 44.2216L116.344 47.5707C116.338 47.7831 116.295 48.1371 116.093 48.1589C115.952 48.1752 115.914 47.8321 115.914 47.6851L115.925 45.7518C115.778 45.7518 115.631 45.7573 115.462 45.7627L115.44 47.1459C115.434 47.3583 115.402 47.7177 115.2 47.7341C115.059 47.7504 115.01 47.4073 115.01 47.2549L115.031 44.8696C115.031 44.7607 115.015 44.5919 114.961 44.4884C114.895 44.3577 114.797 44.1562 114.906 44.0527C115.01 43.9602 115.168 44.0201 115.244 44.1072C115.385 44.2706 115.483 44.4884 115.483 44.7062L115.473 45.3924ZM118.141 46.1875C117.624 46.1875 117.177 45.9642 117.177 45.4959C117.177 45.0493 117.58 44.8043 118.141 44.8043C118.789 44.8043 119.105 45.0983 119.105 45.4959C119.105 45.8607 118.817 46.1875 118.141 46.1875ZM118.141 45.8172C118.473 45.8172 118.669 45.7083 118.669 45.4959C118.669 45.2835 118.463 45.18 118.141 45.18C117.814 45.18 117.613 45.2835 117.613 45.4959C117.613 45.7246 117.842 45.8172 118.141 45.8172ZM117.313 44.2597C117.782 44.276 118.125 44.2706 118.86 44.2161C118.942 44.2161 119.045 44.1943 119.121 44.1943C119.269 44.1943 119.312 44.2869 119.318 44.374C119.328 44.5211 119.236 44.5864 119.138 44.6082C119.089 44.6137 119.045 44.6082 118.876 44.6082C118.185 44.6137 117.88 44.6463 117.166 44.6518C116.938 44.6518 116.78 44.4067 116.867 44.2651C116.949 44.1453 117.161 44.2542 117.313 44.2597ZM117.33 43.6443C117.373 43.5953 117.455 43.6062 117.51 43.6225C117.755 43.7151 118.261 43.7532 118.626 43.6988C118.762 43.677 118.827 43.7205 118.844 43.8022C118.86 43.9003 118.773 43.9874 118.691 44.031C118.452 44.1562 117.727 44.1072 117.482 44.0092C117.319 43.9438 117.243 43.7369 117.33 43.6443ZM119.644 43.5626C119.748 43.4755 119.911 43.5354 119.987 43.6225C120.134 43.7859 120.238 43.9983 120.232 44.2216L120.216 44.8151C120.363 44.8043 120.521 44.7934 120.684 44.7825C120.766 44.777 120.864 44.7716 120.94 44.777C121.087 44.7879 121.126 44.8805 121.126 44.9676C121.126 45.1147 121.027 45.1746 120.924 45.1909C120.875 45.2018 120.848 45.1637 120.679 45.1691C120.532 45.1746 120.369 45.18 120.205 45.1855L120.189 45.6647C120.183 45.8771 120.145 46.231 119.944 46.2528C119.797 46.2692 119.742 45.9261 119.742 45.779L119.764 44.3795C119.764 44.276 119.753 44.1018 119.699 43.9983C119.633 43.873 119.53 43.6661 119.644 43.5626ZM117.722 46.5796C117.76 46.5142 117.874 46.5142 117.956 46.5142C118.539 46.5033 119.318 46.4761 119.889 46.438C120.036 46.4325 120.211 46.5578 120.2 46.7266C120.189 46.9281 120.183 47.0969 120.167 47.2603C120.14 47.4836 119.938 47.5326 119.786 47.5271C119.318 47.5108 118.751 47.5489 118.277 47.5653L118.381 47.8702C118.904 47.8757 119.524 47.8866 120.058 47.843C120.216 47.8267 120.287 47.9247 120.281 48.0227C120.271 48.1861 120.14 48.2405 120.025 48.2405C119.35 48.2351 118.915 48.2732 118.43 48.2678C118.185 48.2623 118.043 48.1697 117.967 47.9301C117.913 47.7668 117.874 47.6633 117.793 47.5217C117.7 47.3583 117.782 47.2004 117.956 47.2004C118.544 47.2276 119.318 47.1732 119.748 47.1405L119.753 46.8301C119.247 46.8573 118.544 46.8791 118.043 46.9063C117.853 46.9172 117.635 46.7266 117.722 46.5796ZM123.706 44.4285C123.684 44.532 123.646 44.63 123.608 44.7226C124.005 44.9295 124.512 45.2508 124.779 45.5503C124.833 45.6102 124.8 45.73 124.735 45.7845C124.659 45.8553 124.566 45.8553 124.495 45.7954C124.174 45.534 123.782 45.3053 123.363 45.1092C123.09 45.4469 122.704 45.7083 122.355 45.8444C122.263 45.8825 122.181 45.8989 122.077 45.8498C121.969 45.8117 121.941 45.681 122.072 45.6102C122.557 45.3379 123.058 44.9513 123.227 44.4721C123.335 44.1671 123.199 44.0146 123.368 43.9438C123.619 43.8404 123.755 44.2161 123.706 44.4285ZM121.669 46.3073C122.78 46.3182 123.951 46.2692 125.089 46.231C125.171 46.2256 125.269 46.2093 125.345 46.2093C125.492 46.2093 125.536 46.3018 125.541 46.389C125.552 46.536 125.454 46.6068 125.356 46.6231C125.307 46.634 125.274 46.6123 125.105 46.6177C124.61 46.6286 124.141 46.6449 123.679 46.6558V47.6524C123.679 48.0445 123.58 48.197 123.444 48.2079C123.292 48.2188 123.232 48.0445 123.227 47.8049L123.21 46.6667C122.66 46.683 122.11 46.6939 121.522 46.7048C121.293 46.7103 121.141 46.4598 121.228 46.3236C121.304 46.1984 121.517 46.3073 121.669 46.3073ZM127.405 45.0874C127.405 44.6953 127.236 44.4285 126.828 44.4285C126.414 44.4285 126.256 44.7008 126.256 45.0874C126.256 45.4959 126.458 45.7518 126.828 45.7518C127.215 45.7518 127.405 45.4795 127.405 45.0874ZM127.852 45.0874C127.852 45.6211 127.563 46.1603 126.833 46.1603C126.076 46.1603 125.81 45.6266 125.81 45.0874C125.81 44.5102 126.163 44.0092 126.833 44.0092C127.514 44.0092 127.852 44.5047 127.852 45.0874ZM128.603 43.5626C128.707 43.4755 128.87 43.5354 128.946 43.6225C129.093 43.7859 129.197 43.9983 129.191 44.2216L129.148 45.7191C129.142 45.9315 129.104 46.2855 128.903 46.3073C128.756 46.3236 128.701 45.9805 128.701 45.8335L128.723 44.3795C128.723 44.276 128.712 44.1018 128.658 43.9983C128.592 43.873 128.489 43.6661 128.603 43.5626ZM127.503 46.8791C127.487 46.9662 127.46 47.0479 127.432 47.135C127.645 47.2875 127.835 47.44 127.993 47.6088C128.135 47.4019 128.249 47.1677 128.315 46.9227C128.396 46.6068 128.385 46.4816 128.511 46.4489C128.674 46.4053 128.805 46.6667 128.756 46.8791C128.728 46.9989 128.696 47.1133 128.652 47.2276C128.968 47.4618 129.306 47.7885 129.464 48.0009C129.513 48.0663 129.485 48.1806 129.42 48.2351C129.344 48.3059 129.246 48.3113 129.18 48.246C128.974 48.039 128.707 47.8158 128.462 47.6524C128.287 47.9519 128.064 48.197 127.814 48.3113C127.732 48.3495 127.618 48.3386 127.552 48.295C127.454 48.2296 127.481 48.1371 127.596 48.0445C127.645 48.0064 127.699 47.9574 127.748 47.9083C127.585 47.7613 127.421 47.6469 127.247 47.538C127.062 47.8539 126.817 48.1316 126.561 48.2569C126.474 48.3004 126.381 48.295 126.3 48.2405C126.202 48.1752 126.223 48.0826 126.343 47.99C126.67 47.7341 126.975 47.244 127.062 46.9227C127.149 46.6068 127.127 46.4816 127.258 46.4489C127.421 46.4053 127.547 46.6613 127.503 46.8791ZM130.805 43.8894C130.903 43.8567 131.039 43.8839 131.088 43.9765C131.235 44.2651 131.3 44.8859 131.327 45.1528C131.817 45.2399 132.498 45.2018 133.081 45.1473C133.168 45.1364 133.233 45.2236 133.233 45.3379C133.239 45.436 133.173 45.5231 133.092 45.5285C132.553 45.5993 131.861 45.6429 131.218 45.5449C131.022 45.5177 130.903 45.4196 130.875 45.2236C130.848 45.0493 130.805 44.4448 130.685 44.1181C130.658 44.0473 130.712 43.922 130.805 43.8894ZM130.167 46.1603C131.278 46.1711 132.449 46.1276 133.587 46.084C133.669 46.0786 133.767 46.0677 133.843 46.0677C133.99 46.0677 134.034 46.1548 134.039 46.2419C134.05 46.389 133.952 46.4598 133.854 46.4761C133.805 46.487 133.773 46.4652 133.604 46.4707C132.346 46.5033 131.267 46.5306 130.02 46.5578C129.792 46.5632 129.639 46.3127 129.726 46.1766C129.803 46.0568 130.015 46.1603 130.167 46.1603ZM130.756 46.7974C130.881 46.7484 130.99 46.7865 131.039 46.8845C131.153 47.1187 131.224 47.4945 131.257 47.8103C131.747 47.892 132.531 47.8702 133.119 47.8158C133.206 47.8103 133.266 47.892 133.272 48.0064C133.277 48.1044 133.212 48.1861 133.13 48.197C132.645 48.2732 131.665 48.3004 131.159 48.197C130.968 48.1589 130.837 48.0663 130.815 47.8702C130.777 47.587 130.734 47.2712 130.63 47.0425C130.598 46.9717 130.63 46.8464 130.756 46.7974Z" fill="black"/>
<path d="M135.708 44.2651C135.74 44.1671 135.855 44.1889 136.018 44.1725C136.28 44.1508 136.775 44.1181 137.178 44.0582C137.254 44.0527 137.341 44.0582 137.412 44.1018C137.505 44.1508 137.581 44.2542 137.559 44.3468C137.483 44.6354 137.341 44.9077 137.173 45.1528C137.45 45.3706 137.723 45.6211 137.908 45.839C137.957 45.8989 137.908 46.0241 137.837 46.0786C137.755 46.1439 137.646 46.1439 137.587 46.0786C137.358 45.839 137.124 45.6701 136.889 45.5068C136.628 45.7954 136.339 46.0187 136.111 46.133C136.029 46.1766 135.936 46.2038 135.828 46.1657C135.719 46.133 135.68 46.0078 135.8 45.9206C136.307 45.5612 136.851 45.0221 137.064 44.4448C136.726 44.4884 136.427 44.5211 136.111 44.5592C135.882 44.5919 135.653 44.4231 135.708 44.2651ZM138.316 43.5626C138.42 43.4755 138.583 43.5354 138.659 43.6225C138.806 43.7859 138.91 43.9983 138.904 44.2216L138.888 44.8151C139.041 44.8043 139.193 44.7934 139.356 44.7825C139.438 44.777 139.536 44.7716 139.612 44.777C139.759 44.7879 139.798 44.8805 139.798 44.9676C139.798 45.1147 139.699 45.1746 139.596 45.1909C139.547 45.2018 139.52 45.1637 139.351 45.1691C139.204 45.1746 139.046 45.18 138.877 45.1855L138.861 45.8226C138.855 46.035 138.817 46.389 138.616 46.4108C138.469 46.4271 138.414 46.084 138.414 45.937L138.436 44.3795C138.436 44.276 138.425 44.1018 138.371 43.9983C138.305 43.873 138.202 43.6661 138.316 43.5626ZM136.693 47.3692C136.693 46.7865 137.2 46.4162 137.793 46.4217C138.387 46.4217 138.894 46.7756 138.894 47.3692C138.894 47.9519 138.387 48.3168 137.793 48.3168C137.2 48.3222 136.693 47.9519 136.693 47.3692ZM137.14 47.3692C137.14 47.6578 137.385 47.9247 137.793 47.9192C138.202 47.9192 138.447 47.6578 138.447 47.3692C138.452 47.0751 138.202 46.8192 137.793 46.8192C137.385 46.8137 137.14 47.0697 137.14 47.3692ZM140.771 46.5197C141.12 46.5523 141.713 46.4707 142.046 46.3944C142.127 46.3781 142.214 46.4543 142.22 46.5687C142.225 46.6613 142.176 46.7375 142.105 46.7647C141.784 46.8791 141.049 46.9499 140.673 46.9063C140.477 46.8845 140.341 46.7702 140.33 46.5306C140.319 46.2637 140.319 45.1964 140.259 44.9949C140.227 44.8642 140.129 44.7008 140.183 44.5973C140.227 44.5156 140.276 44.4666 140.423 44.4721C140.521 44.4775 140.619 44.483 140.722 44.4775C140.945 44.4612 141.452 44.4231 141.67 44.3958C141.86 44.374 141.98 44.4666 141.986 44.5973C141.991 44.728 141.899 44.8097 141.702 44.8151C141.463 44.8206 140.989 44.8369 140.673 44.8642C140.695 44.9785 140.717 45.2181 140.733 45.4795C140.88 45.4686 141.12 45.4523 141.348 45.4305C141.457 45.4196 141.566 45.4033 141.67 45.3978C141.86 45.3924 141.98 45.4686 141.986 45.5993C141.991 45.73 141.899 45.8117 141.702 45.8172C141.447 45.8281 141.065 45.8444 140.755 45.8607C140.766 46.1385 140.771 46.3944 140.771 46.5197ZM142.808 43.5626C142.911 43.47 143.075 43.5299 143.151 43.6171C143.298 43.7804 143.402 43.9983 143.396 44.2161L143.353 47.5653C143.347 47.7831 143.309 48.1371 143.107 48.1589C142.96 48.1752 142.906 47.8321 142.906 47.6796L142.917 45.7137L142.606 45.7518C142.34 45.7899 142.203 45.681 142.22 45.5122C142.231 45.4087 142.318 45.3543 142.394 45.3488C142.508 45.3379 142.612 45.3488 142.721 45.3434C142.786 45.3379 142.857 45.3325 142.922 45.327L142.928 44.3795C142.928 44.2706 142.917 44.1018 142.862 43.9983C142.797 43.8676 142.694 43.6661 142.808 43.5626Z" fill="#3FAFE0"/>
<path d="M154.277 7.24756H180.404L177.183 36.2379H157.498L154.277 7.24756Z" fill="#FFC033"/>
<circle cx="160.936" cy="30.9668" r="8.77249" fill="#3FAFE0" stroke="#46A5C2" stroke-width="0.0713365"/>
<mask id="mask0_37_4843" style="mask-type:alpha" maskUnits="userSpaceOnUse" x="155" y="20" width="14" height="9">
<path d="M163.173 25.1547C163.173 24.2305 157.668 24.1152 155.312 24.2305L155.086 21.809L165.614 20.4253C167.143 22.0108 169.888 24.5172 167.902 26.4544C165.421 28.8759 157.116 28.3318 157.116 27.1709C157.116 25.8046 163.173 26.5547 163.173 25.1547Z" fill="#24D63F"/>
</mask>
<g mask="url(#mask0_37_4843)">
<circle cx="160.934" cy="30.9673" r="8.73682" fill="#99FFA9" fill-opacity="0.44"/>
</g>
<mask id="mask1_37_4843" style="mask-type:alpha" maskUnits="userSpaceOnUse" x="153" y="33" width="14" height="9">
<path d="M160.015 36.7528C159.594 37.7906 164.201 37.8194 166.558 37.7041L166.783 40.1256L156.255 41.5093L156.237 41.4899C154.708 39.905 152.488 37.6033 154.256 35.4801C155.914 33.4881 164.753 33.675 164.753 34.7637C164.753 35.769 160.542 35.4555 160.015 36.7528Z" fill="#24D63F"/>
</mask>
<g mask="url(#mask1_37_4843)">
<circle cx="160.935" cy="30.9673" r="8.73682" transform="rotate(-180 160.935 30.9673)" fill="#99FFA9" fill-opacity="0.44"/>
</g>
<path d="M174.959 11.8643C174.959 15.7196 171.755 18.845 167.804 18.845C163.852 18.845 160.648 15.7196 160.648 11.8643" stroke="white" stroke-width="1.04711" stroke-linecap="round"/>
<circle cx="160.477" cy="11.5715" r="1.02949" fill="white"/>
<circle cx="174.889" cy="11.5715" r="1.02949" fill="white"/>
</svg>
